<mxfile host="app.diagrams.net" agent="Mozilla/5.0 (Windows NT 10.0; Win64; x64; rv:131.0) Gecko/20100101 Firefox/131.0" version="24.7.17">
  <diagram id="2TaQnkym_xKwZRqOY4yj" name="Page-1">
    <mxGraphModel dx="2261" dy="754" grid="1" gridSize="10" guides="1" tooltips="1" connect="1" arrows="1" fold="1" page="1" pageScale="1" pageWidth="827" pageHeight="1169" math="0" shadow="0">
      <root>
        <mxCell id="0" />
        <mxCell id="1" parent="0" />
        <mxCell id="cHjrDgvOfd1Py4euJdrB-1" value="Игрок&lt;br&gt;посетитель профиля" style="shape=umlActor;verticalLabelPosition=bottom;verticalAlign=top;html=1;outlineConnect=0;" parent="1" vertex="1">
          <mxGeometry x="40" y="120" width="30" height="60" as="geometry" />
        </mxCell>
        <mxCell id="cHjrDgvOfd1Py4euJdrB-2" value="Просмотр общей информации" style="ellipse;whiteSpace=wrap;html=1;" parent="1" vertex="1">
          <mxGeometry x="-160" y="80" width="120" height="40" as="geometry" />
        </mxCell>
        <mxCell id="cHjrDgvOfd1Py4euJdrB-3" value="Игрок&lt;br&gt;владелец профиля" style="shape=umlActor;verticalLabelPosition=bottom;verticalAlign=top;html=1;outlineConnect=0;" parent="1" vertex="1">
          <mxGeometry x="40" y="360" width="30" height="60" as="geometry" />
        </mxCell>
        <mxCell id="cHjrDgvOfd1Py4euJdrB-4" value="Просмотр фото профиля" style="ellipse;whiteSpace=wrap;html=1;" parent="1" vertex="1">
          <mxGeometry x="-160" y="120" width="120" height="40" as="geometry" />
        </mxCell>
        <mxCell id="cHjrDgvOfd1Py4euJdrB-5" value="Просмотр статуса" style="ellipse;whiteSpace=wrap;html=1;" parent="1" vertex="1">
          <mxGeometry x="-160" y="160" width="120" height="40" as="geometry" />
        </mxCell>
        <mxCell id="cHjrDgvOfd1Py4euJdrB-6" value="Просмотр достижений" style="ellipse;whiteSpace=wrap;html=1;" parent="1" vertex="1">
          <mxGeometry x="-160" y="200" width="120" height="40" as="geometry" />
        </mxCell>
        <mxCell id="cHjrDgvOfd1Py4euJdrB-9" value="Просмотр игр библиотеки" style="ellipse;whiteSpace=wrap;html=1;" parent="1" vertex="1">
          <mxGeometry x="150" y="200" width="120" height="40" as="geometry" />
        </mxCell>
        <mxCell id="cHjrDgvOfd1Py4euJdrB-10" value="Подписка на игрока" style="ellipse;whiteSpace=wrap;html=1;" parent="1" vertex="1">
          <mxGeometry x="150" y="160" width="120" height="40" as="geometry" />
        </mxCell>
        <mxCell id="cHjrDgvOfd1Py4euJdrB-11" value="Просмотр истории участия в мероприятиях" style="ellipse;whiteSpace=wrap;html=1;" parent="1" vertex="1">
          <mxGeometry x="150" y="80" width="120" height="80" as="geometry" />
        </mxCell>
        <mxCell id="cHjrDgvOfd1Py4euJdrB-12" value="Просмотр рейтинга" style="ellipse;whiteSpace=wrap;html=1;" parent="1" vertex="1">
          <mxGeometry x="60" y="40" width="120" height="40" as="geometry" />
        </mxCell>
        <mxCell id="cHjrDgvOfd1Py4euJdrB-13" value="Просмотр постов" style="ellipse;whiteSpace=wrap;html=1;" parent="1" vertex="1">
          <mxGeometry x="-70" y="40" width="120" height="40" as="geometry" />
        </mxCell>
        <mxCell id="cHjrDgvOfd1Py4euJdrB-15" value="Изменение общей информации" style="ellipse;whiteSpace=wrap;html=1;" parent="1" vertex="1">
          <mxGeometry x="-160" y="340" width="120" height="40" as="geometry" />
        </mxCell>
        <mxCell id="cHjrDgvOfd1Py4euJdrB-16" value="Изменение фото профиля" style="ellipse;whiteSpace=wrap;html=1;" parent="1" vertex="1">
          <mxGeometry x="-160" y="380" width="120" height="40" as="geometry" />
        </mxCell>
        <mxCell id="cHjrDgvOfd1Py4euJdrB-17" value="Изменение статуса" style="ellipse;whiteSpace=wrap;html=1;" parent="1" vertex="1">
          <mxGeometry x="-160" y="420" width="120" height="40" as="geometry" />
        </mxCell>
        <mxCell id="cHjrDgvOfd1Py4euJdrB-18" value="Добавление, изменение, удаление игр библиотеки" style="ellipse;whiteSpace=wrap;html=1;" parent="1" vertex="1">
          <mxGeometry x="150" y="392.5" width="120" height="65" as="geometry" />
        </mxCell>
        <mxCell id="cHjrDgvOfd1Py4euJdrB-19" value="Добавление, изменение, удаление постов" style="ellipse;whiteSpace=wrap;html=1;" parent="1" vertex="1">
          <mxGeometry x="150" y="322.5" width="120" height="70" as="geometry" />
        </mxCell>
        <mxCell id="cHjrDgvOfd1Py4euJdrB-20" value="" style="endArrow=none;html=1;rounded=0;exitX=1;exitY=0.5;exitDx=0;exitDy=0;" parent="1" source="cHjrDgvOfd1Py4euJdrB-6" target="cHjrDgvOfd1Py4euJdrB-1" edge="1">
          <mxGeometry width="50" height="50" relative="1" as="geometry">
            <mxPoint x="30" y="340" as="sourcePoint" />
            <mxPoint x="80" y="290" as="targetPoint" />
          </mxGeometry>
        </mxCell>
        <mxCell id="cHjrDgvOfd1Py4euJdrB-21" value="" style="endArrow=none;html=1;rounded=0;exitX=1;exitY=0.5;exitDx=0;exitDy=0;" parent="1" source="cHjrDgvOfd1Py4euJdrB-5" target="cHjrDgvOfd1Py4euJdrB-1" edge="1">
          <mxGeometry width="50" height="50" relative="1" as="geometry">
            <mxPoint x="40" y="350" as="sourcePoint" />
            <mxPoint x="90" y="300" as="targetPoint" />
          </mxGeometry>
        </mxCell>
        <mxCell id="cHjrDgvOfd1Py4euJdrB-22" value="" style="endArrow=none;html=1;rounded=0;exitX=1;exitY=0.5;exitDx=0;exitDy=0;" parent="1" source="cHjrDgvOfd1Py4euJdrB-4" target="cHjrDgvOfd1Py4euJdrB-1" edge="1">
          <mxGeometry width="50" height="50" relative="1" as="geometry">
            <mxPoint x="50" y="360" as="sourcePoint" />
            <mxPoint x="100" y="310" as="targetPoint" />
          </mxGeometry>
        </mxCell>
        <mxCell id="cHjrDgvOfd1Py4euJdrB-23" value="" style="endArrow=none;html=1;rounded=0;exitX=1;exitY=0.5;exitDx=0;exitDy=0;" parent="1" source="cHjrDgvOfd1Py4euJdrB-2" target="cHjrDgvOfd1Py4euJdrB-1" edge="1">
          <mxGeometry width="50" height="50" relative="1" as="geometry">
            <mxPoint x="60" y="370" as="sourcePoint" />
            <mxPoint x="110" y="320" as="targetPoint" />
          </mxGeometry>
        </mxCell>
        <mxCell id="cHjrDgvOfd1Py4euJdrB-24" value="" style="endArrow=none;html=1;rounded=0;exitX=0.5;exitY=1;exitDx=0;exitDy=0;" parent="1" source="cHjrDgvOfd1Py4euJdrB-13" target="cHjrDgvOfd1Py4euJdrB-1" edge="1">
          <mxGeometry width="50" height="50" relative="1" as="geometry">
            <mxPoint x="70" y="380" as="sourcePoint" />
            <mxPoint x="120" y="330" as="targetPoint" />
          </mxGeometry>
        </mxCell>
        <mxCell id="cHjrDgvOfd1Py4euJdrB-25" value="" style="endArrow=none;html=1;rounded=0;exitX=0.5;exitY=1;exitDx=0;exitDy=0;" parent="1" source="cHjrDgvOfd1Py4euJdrB-12" target="cHjrDgvOfd1Py4euJdrB-1" edge="1">
          <mxGeometry width="50" height="50" relative="1" as="geometry">
            <mxPoint x="80" y="390" as="sourcePoint" />
            <mxPoint x="130" y="340" as="targetPoint" />
          </mxGeometry>
        </mxCell>
        <mxCell id="cHjrDgvOfd1Py4euJdrB-26" value="" style="endArrow=none;html=1;rounded=0;exitX=0;exitY=0.5;exitDx=0;exitDy=0;" parent="1" source="cHjrDgvOfd1Py4euJdrB-11" target="cHjrDgvOfd1Py4euJdrB-1" edge="1">
          <mxGeometry width="50" height="50" relative="1" as="geometry">
            <mxPoint x="90" y="400" as="sourcePoint" />
            <mxPoint x="140" y="350" as="targetPoint" />
          </mxGeometry>
        </mxCell>
        <mxCell id="cHjrDgvOfd1Py4euJdrB-27" value="" style="endArrow=none;html=1;rounded=0;exitX=0;exitY=0.5;exitDx=0;exitDy=0;" parent="1" source="cHjrDgvOfd1Py4euJdrB-10" target="cHjrDgvOfd1Py4euJdrB-1" edge="1">
          <mxGeometry width="50" height="50" relative="1" as="geometry">
            <mxPoint x="100" y="410" as="sourcePoint" />
            <mxPoint x="150" y="360" as="targetPoint" />
          </mxGeometry>
        </mxCell>
        <mxCell id="cHjrDgvOfd1Py4euJdrB-28" value="" style="endArrow=none;html=1;rounded=0;entryX=0;entryY=0.5;entryDx=0;entryDy=0;" parent="1" source="cHjrDgvOfd1Py4euJdrB-1" target="cHjrDgvOfd1Py4euJdrB-9" edge="1">
          <mxGeometry width="50" height="50" relative="1" as="geometry">
            <mxPoint x="110" y="420" as="sourcePoint" />
            <mxPoint x="160" y="370" as="targetPoint" />
          </mxGeometry>
        </mxCell>
        <mxCell id="cHjrDgvOfd1Py4euJdrB-29" value="" style="endArrow=none;html=1;rounded=0;exitX=1;exitY=0.5;exitDx=0;exitDy=0;" parent="1" source="cHjrDgvOfd1Py4euJdrB-15" target="cHjrDgvOfd1Py4euJdrB-3" edge="1">
          <mxGeometry width="50" height="50" relative="1" as="geometry">
            <mxPoint x="120" y="430" as="sourcePoint" />
            <mxPoint x="170" y="380" as="targetPoint" />
          </mxGeometry>
        </mxCell>
        <mxCell id="cHjrDgvOfd1Py4euJdrB-30" value="" style="endArrow=none;html=1;rounded=0;exitX=1;exitY=0.5;exitDx=0;exitDy=0;" parent="1" source="cHjrDgvOfd1Py4euJdrB-16" target="cHjrDgvOfd1Py4euJdrB-3" edge="1">
          <mxGeometry width="50" height="50" relative="1" as="geometry">
            <mxPoint x="110" y="540" as="sourcePoint" />
            <mxPoint x="150" y="450" as="targetPoint" />
          </mxGeometry>
        </mxCell>
        <mxCell id="cHjrDgvOfd1Py4euJdrB-31" value="" style="endArrow=none;html=1;rounded=0;exitX=1;exitY=0.5;exitDx=0;exitDy=0;" parent="1" source="cHjrDgvOfd1Py4euJdrB-17" target="cHjrDgvOfd1Py4euJdrB-3" edge="1">
          <mxGeometry width="50" height="50" relative="1" as="geometry">
            <mxPoint x="120" y="550" as="sourcePoint" />
            <mxPoint x="160" y="460" as="targetPoint" />
          </mxGeometry>
        </mxCell>
        <mxCell id="cHjrDgvOfd1Py4euJdrB-32" value="" style="endArrow=none;html=1;rounded=0;entryX=0;entryY=0.5;entryDx=0;entryDy=0;" parent="1" source="cHjrDgvOfd1Py4euJdrB-3" target="cHjrDgvOfd1Py4euJdrB-19" edge="1">
          <mxGeometry width="50" height="50" relative="1" as="geometry">
            <mxPoint x="130" y="560" as="sourcePoint" />
            <mxPoint x="170" y="470" as="targetPoint" />
          </mxGeometry>
        </mxCell>
        <mxCell id="cHjrDgvOfd1Py4euJdrB-33" value="" style="endArrow=none;html=1;rounded=0;entryX=0;entryY=0.5;entryDx=0;entryDy=0;" parent="1" source="cHjrDgvOfd1Py4euJdrB-3" target="cHjrDgvOfd1Py4euJdrB-18" edge="1">
          <mxGeometry width="50" height="50" relative="1" as="geometry">
            <mxPoint x="140" y="570" as="sourcePoint" />
            <mxPoint x="180" y="480" as="targetPoint" />
          </mxGeometry>
        </mxCell>
        <mxCell id="cHjrDgvOfd1Py4euJdrB-34" value="" style="endArrow=block;endSize=16;endFill=0;html=1;rounded=0;" parent="1" edge="1">
          <mxGeometry x="-0.0769" y="-105" width="160" relative="1" as="geometry">
            <mxPoint x="55" y="350" as="sourcePoint" />
            <mxPoint x="55" y="220" as="targetPoint" />
            <mxPoint as="offset" />
          </mxGeometry>
        </mxCell>
        <mxCell id="mXULggqt_iL1JmUJtnf6-1" value="Система" style="shape=umlActor;verticalLabelPosition=bottom;verticalAlign=top;html=1;outlineConnect=0;" vertex="1" parent="1">
          <mxGeometry x="280" y="257.5" width="30" height="60" as="geometry" />
        </mxCell>
        <mxCell id="mXULggqt_iL1JmUJtnf6-2" value="Выдать достижение игроку" style="ellipse;whiteSpace=wrap;html=1;" vertex="1" parent="1">
          <mxGeometry x="374" y="252.5" width="120" height="70" as="geometry" />
        </mxCell>
        <mxCell id="mXULggqt_iL1JmUJtnf6-3" value="" style="endArrow=none;html=1;rounded=0;entryX=0;entryY=0.5;entryDx=0;entryDy=0;" edge="1" parent="1" source="mXULggqt_iL1JmUJtnf6-1" target="mXULggqt_iL1JmUJtnf6-2">
          <mxGeometry width="50" height="50" relative="1" as="geometry">
            <mxPoint x="474" y="197.5" as="sourcePoint" />
            <mxPoint x="394" y="172.5" as="targetPoint" />
          </mxGeometry>
        </mxCell>
      </root>
    </mxGraphModel>
  </diagram>
</mxfile>
